<?xml version="1.0" encoding="UTF-8"?>
<svg version="1.1" xmlns="http://www.w3.org/2000/svg" width="512" height="512">
<path d="M0 0 C0.99868909 -0.00297112 1.99737819 -0.00594224 3.02633059 -0.0090034 C6.35908455 -0.01764635 9.69180239 -0.01919493 13.02456665 -0.02069092 C15.42015662 -0.02532233 17.81574585 -0.03034742 20.21133423 -0.03573608 C26.71186048 -0.04883371 33.21237985 -0.05533771 39.71291685 -0.05974674 C43.78023756 -0.06251761 47.84755591 -0.06675656 51.91487503 -0.07125092 C63.19913521 -0.08343966 74.48339352 -0.09373856 85.76766014 -0.09712601 C86.48888342 -0.09734557 87.2101067 -0.09756514 87.95318524 -0.09779136 C88.67603937 -0.09800964 89.39889351 -0.09822791 90.14365232 -0.09845281 C91.60818887 -0.09889626 93.07272542 -0.09934282 94.53726196 -0.09979248 C95.2637076 -0.10001391 95.99015323 -0.10023534 96.73861237 -0.10046348 C108.48858398 -0.10440477 120.23849332 -0.12184006 131.98844092 -0.145152 C144.08217627 -0.16895013 156.17588049 -0.18133175 168.26963961 -0.18249393 C175.04751456 -0.18340615 181.82530843 -0.18904286 188.60316086 -0.20731354 C194.98736375 -0.22388814 201.37141365 -0.2259044 207.75563049 -0.21717453 C210.08628883 -0.21640908 212.41695571 -0.22068117 214.74759293 -0.23063278 C258.07962913 -0.40465983 296.27158717 14.14096113 327.37026978 44.66778564 C335.82133285 53.25263113 342.72223089 62.77794547 348.81997681 73.14044189 C349.16657349 73.72519287 349.51317017 74.30994385 349.87026978 74.91241455 C362.01010239 95.68527045 368.98307225 119.22610484 368.9604187 143.32046509 C368.96487538 144.81849873 368.96487538 144.81849873 368.9694221 146.34679568 C368.97806505 149.67954963 368.97961363 153.01226748 368.98110962 156.34503174 C368.98574103 158.7406217 368.99076612 161.13621093 368.99615479 163.53179932 C369.00925242 170.03232557 369.01575642 176.53284494 369.02016544 183.03338194 C369.02293631 187.10070264 369.02717527 191.168021 369.03166962 195.23534012 C369.04385836 206.5196003 369.05415726 217.80385861 369.05754471 229.08812523 C369.05776427 229.80934851 369.05798384 230.53057179 369.05821006 231.27365033 C369.05842834 231.99650446 369.05864662 232.7193586 369.05887151 233.46411741 C369.05931496 234.92865396 369.05976152 236.3931905 369.06021118 237.85772705 C369.06043261 238.58417268 369.06065404 239.31061832 369.06088218 240.05907746 C369.06482347 251.80904907 369.08225876 263.55895841 369.1055707 275.308906 C369.12936883 287.40264135 369.14175045 299.49634558 369.14291263 311.5901047 C369.14382485 318.36797965 369.14946156 325.14577352 369.16773224 331.92362595 C369.18430684 338.30782883 369.1863231 344.69187874 369.17759323 351.07609558 C369.17682778 353.40675392 369.18109987 355.7374208 369.19105148 358.06805801 C369.36507853 401.40009422 354.81945758 439.59205226 324.29263306 470.69073486 C315.70778757 479.14179794 306.18247323 486.04269597 295.81997681 492.14044189 C295.23522583 492.48703857 294.65047485 492.83363525 294.04800415 493.19073486 C273.27514825 505.33056748 249.73431386 512.30353734 225.63995361 512.28088379 C224.64126452 512.28385491 223.64257542 512.28682603 222.61362302 512.28988719 C219.28086907 512.29853014 215.94815122 512.30007872 212.61538696 512.30157471 C210.219797 512.30620611 207.82420777 512.31123121 205.42861938 512.31661987 C198.92809313 512.3297175 192.42757376 512.3362215 185.92703676 512.34063053 C181.85971606 512.3434014 177.7923977 512.34764035 173.72507858 512.3521347 C162.4408184 512.36432345 151.15656009 512.37462235 139.87229347 512.3780098 C138.79045855 512.37833915 138.79045855 512.37833915 137.68676838 512.37867515 C136.96391424 512.37889343 136.2410601 512.3791117 135.49630129 512.3793366 C134.03176474 512.37978005 132.5672282 512.38022661 131.10269165 512.38067627 C130.37624602 512.3808977 129.64980038 512.38111913 128.90134124 512.38134727 C117.15136963 512.38528855 105.40146029 512.40272385 93.6515127 512.42603579 C81.55777735 512.44983392 69.46407312 512.46221554 57.370314 512.46337771 C50.59243905 512.46428994 43.81464518 512.46992664 37.03679276 512.48819733 C30.65258987 512.50477193 24.26853996 512.50678819 17.88432312 512.49805832 C15.55366478 512.49729287 13.2229979 512.50156496 10.89236069 512.51151657 C-32.43967552 512.68554362 -70.63163355 498.13992266 -101.73031616 467.61309814 C-110.18137924 459.02825266 -117.08227727 449.50293832 -123.18002319 439.14044189 C-123.52661987 438.55569092 -123.87321655 437.97093994 -124.23031616 437.36846924 C-139.15366328 411.83265263 -143.96888288 384.22270078 -143.82699585 354.93341064 C-143.83379502 352.5269607 -143.84271086 350.12051597 -143.85354614 347.71408081 C-143.87607264 341.2594098 -143.86761464 334.80514453 -143.85165071 328.35046768 C-143.84267249 324.30057544 -143.84447118 320.25073325 -143.84910202 316.20083618 C-143.84986819 315.52315191 -143.85063435 314.84546765 -143.85142373 314.14724749 C-143.85302277 312.7694531 -143.85464384 311.39165874 -143.85628669 310.0138644 C-143.87045789 297.17115175 -143.8542884 284.32861914 -143.82728486 271.48593605 C-143.80495393 260.5272569 -143.80883651 249.56884283 -143.83187866 238.61016846 C-143.85879081 225.80542442 -143.86908541 213.00083715 -143.85381734 200.19606876 C-143.85222502 198.82406174 -143.85065316 197.45205468 -143.84910202 196.08004761 C-143.84833064 195.40544076 -143.84755927 194.73083391 -143.84676451 194.03578442 C-143.84249339 189.33985864 -143.8498857 184.64406472 -143.86149979 179.94815063 C-143.87611257 173.59803788 -143.86562045 167.2484178 -143.8370285 160.89835739 C-143.83050645 158.58998806 -143.83215941 156.2815761 -143.84334183 153.97322464 C-144.02984188 111.50758545 -129.37532516 73.193066 -99.75082397 42.66778564 C-73.70742027 16.77431011 -36.88675524 -0.03468097 0 0 Z " fill="#348EE9" transform="translate(143.18002319335938,-0.14044189453125)"/>
<path d="M0 0 C26.63398534 22.71393289 52.54641881 46.21974376 77.9375 70.3125 C78.77077568 71.10231781 79.60405136 71.89213563 80.46257782 72.70588732 C155.52106258 143.97723047 155.52106258 143.97723047 157.98020935 186.44444275 C158.15532346 193.41584014 157.72623673 200.25651395 157 207.1875 C156.88587139 208.28615513 156.77174278 209.38481026 156.65415573 210.51675797 C155.33311521 222.24871835 153.12645216 233.60559524 149.89462185 244.95590973 C148.12977394 251.20341646 146.93515018 257.43950907 145.99188232 263.86013317 C140.63983766 299.94975787 117.90467277 334.22786525 89 356 C84.48356624 359.24882222 79.79308238 362.17954078 75 365 C74.41524902 365.34659668 73.83049805 365.69319336 73.22802734 366.05029297 C56.02422819 376.10433864 37.10261375 382.31290644 17.33232117 384.69824219 C14.79431443 385.02661178 12.27008007 385.41936002 9.74121094 385.81176758 C-31.54839325 391.83864085 -31.54839325 391.83864085 -46.75927734 380.79003906 C-59.43409328 371.00593739 -69.97183338 358.26362093 -79.92553711 345.83374023 C-83.56692172 341.35155799 -87.55944019 337.66754423 -92 334 C-93.41446697 332.64417594 -94.81527309 331.27355962 -96.1875 329.875 C-97.18523437 328.86179687 -97.18523437 328.86179687 -98.203125 327.828125 C-99.09257812 326.92320312 -99.09257812 326.92320312 -100 326 C-100.804375 325.21625 -101.60875 324.4325 -102.4375 323.625 C-105.56199242 320.42430045 -108.4906918 317.06985157 -111.42578125 313.6953125 C-113.46540437 311.55974353 -115.49209981 309.66279069 -117.72265625 307.7421875 C-122.40591419 303.70514145 -126.76558772 299.38146665 -131.125 295 C-131.89714844 294.23171875 -132.66929687 293.4634375 -133.46484375 292.671875 C-137.37618632 288.75386916 -141.11936873 284.77783499 -144.67919922 280.53881836 C-146.66209847 278.22861245 -148.82408707 276.12847297 -151 274 C-152.41819504 272.57313204 -153.83468549 271.14456896 -155.25 269.71484375 C-156.83327257 268.12233542 -158.41660748 266.52988907 -160 264.9375 C-161.19109375 263.73383789 -161.19109375 263.73383789 -162.40625 262.50585938 C-166.11986308 258.77677291 -169.76642092 255.14957799 -174 252 C-173.505 251.01 -173.505 251.01 -173 250 C-172.30777344 250.556875 -171.61554688 251.11375 -170.90234375 251.6875 C-136.41866038 278.58386437 -93.01706803 281.59219194 -50.875 276.4375 C-32.32888571 274.08106112 -13.8645904 270.25846564 3 262 C4.21388346 232.23448461 4.56243436 202.44281443 4.94995117 172.6574707 C4.99709498 169.21229337 5.0508273 165.76729907 5.10742188 162.32226562 C5.18566591 157.51097431 5.24509227 152.69990344 5.28610229 147.88815308 C5.30356568 146.18423146 5.32781181 144.48036455 5.35916138 142.77664185 C5.40017291 140.47189725 5.41648902 138.16833894 5.42578125 135.86328125 C5.44036377 134.59782471 5.45494629 133.33236816 5.4699707 132.02856445 C5.28969532 128.95043112 5.28969532 128.95043112 3.24145508 127.17529297 C-4.98276483 122.86297463 -13.17635082 122.5501575 -22.33984375 122.66381836 C-24.36499173 122.68738354 -26.38881199 122.68436086 -28.4140625 122.67773438 C-43.42939104 122.49550704 -43.42939104 122.49550704 -57 128 C-58.32800819 130.65601638 -58.124656 132.66544738 -58.12597656 135.63964844 C-58.12978333 136.82137634 -58.13359009 138.00310425 -58.13751221 139.22064209 C-58.13853943 140.50392395 -58.13956665 141.78720581 -58.140625 143.109375 C-58.15425858 145.11818985 -58.16792194 147.12700502 -58.18333054 149.13580704 C-58.22132395 154.09805681 -58.25261966 159.06004911 -58.25048828 164.02246094 C-58.24985261 166.80318249 -58.26232951 169.5832413 -58.28948975 172.36383057 C-58.3148221 174.98362811 -58.32122643 177.60369202 -58.30670166 180.22357178 C-58.44249532 190.10351845 -58.44249532 190.10351845 -61.37426758 193.76831055 C-68.70459121 199.99857445 -79.35354832 198.690589 -88.45947266 198.23828125 C-98.11593629 197.3325818 -105.96708607 192.4230487 -113 186 C-113.76054687 185.33097656 -114.52109375 184.66195312 -115.3046875 183.97265625 C-127.92681786 172.22175038 -134.08082892 155.89391652 -135.20678711 138.87426758 C-135.30350027 135.55914129 -135.32889236 132.25398421 -135.3125 128.9375 C-135.30512817 127.16729492 -135.30512817 127.16729492 -135.29760742 125.36132812 C-135.03724339 105.76058967 -131.54766151 88.11421669 -117.75 73.3125 C-104.50653916 60.6843327 -87.9167471 58.23420402 -70.37890625 58.6171875 C-57.74288766 59.2445876 -45.47239973 64.01840018 -35 71 C-29.04622226 71.11674074 -26.02494227 68.93261309 -21.90625 64.99609375 C-8.11825352 50.55825317 -1.32907104 28.78744686 -0.4375 9.1875 C-0.37272461 7.86202148 -0.37272461 7.86202148 -0.30664062 6.50976562 C-0.20108464 4.34000377 -0.10008929 2.1700209 0 0 Z " fill="#104DAB" transform="translate(364,127)"/>
<path d="M0 0 C4.34885845 8.6977169 0.90127801 23.6905665 -1.80078125 32.5078125 C-2.19652344 33.66023438 -2.59226562 34.81265625 -3 36 C-3.38542969 37.13179687 -3.77085937 38.26359375 -4.16796875 39.4296875 C-8.86002808 52.33664683 -15.092153 64.07361946 -26.125 72.6875 C-29.96118881 74.43880359 -31.96879669 74.15177237 -36 73 C-36.87398437 72.38511719 -37.74796875 71.77023438 -38.6484375 71.13671875 C-42.6645261 68.57634525 -46.60711669 67.23124802 -51.125 65.8125 C-51.92292969 65.55275391 -52.72085938 65.29300781 -53.54296875 65.02539062 C-69.80614167 59.77176131 -89.24507722 59.85094401 -104.75 67.625 C-118.98066351 76.11309826 -126.50793774 87.26930651 -131 103 C-135.15511394 119.87880483 -135.3867984 141.42856397 -130 158 C-129.64808594 159.11117187 -129.29617187 160.22234375 -128.93359375 161.3671875 C-123.9456106 175.62327136 -114.759609 186.98648216 -101.75 194.7109375 C-94.22680012 198.23743744 -87.67566404 199.4826455 -79.375 199.375 C-78.47265625 199.38660156 -77.5703125 199.39820313 -76.640625 199.41015625 C-71.00848943 199.38552592 -66.92786038 198.79963276 -62 196 C-58.92466222 192.79121733 -58.63026146 190.49451688 -58.64697266 186.11743164 C-58.64148911 184.34022484 -58.64148911 184.34022484 -58.63589478 182.52711487 C-58.6498378 180.61297035 -58.6498378 180.61297035 -58.6640625 178.66015625 C-58.65475356 176.65218806 -58.64541608 174.64421953 -58.63438988 172.63626003 C-58.61196437 167.6882376 -58.62193899 162.74025705 -58.63964844 157.79223633 C-58.6484605 155.01398504 -58.64401384 152.23631923 -58.62582397 149.45811462 C-58.60990282 146.84272987 -58.61460743 144.22712144 -58.64199829 141.61183167 C-58.55961729 131.78604351 -58.55961729 131.78604351 -55.60302734 128.73608398 C-46.84184652 122.89283161 -35.9214671 123.76457159 -25.7355957 123.70483398 C-24.37546376 123.69332256 -23.01537671 123.67288336 -21.65551758 123.64331055 C-12.09394302 123.43653009 -2.41823139 123.70960374 5.80493164 129.20654297 C7.68564628 132.02895967 7.35292789 134.50484174 7.328125 137.86328125 C7.3266597 138.57776428 7.3251944 139.29224731 7.32368469 140.02838135 C7.31422767 142.45676462 7.28229002 144.88431995 7.25 147.3125 C7.23724056 149.05785458 7.22547099 150.80321662 7.21459961 152.54858398 C7.16858789 158.69942634 7.0841126 164.84958111 7 171 C6.96814282 173.48893077 6.93640927 175.97786313 6.90478516 178.46679688 C6.53423506 206.98245767 6.1621272 235.50359483 5 264 C-2.89966686 268.26624198 -10.54534389 271.43531943 -19.25 273.625 C-20.40258301 273.91640869 -21.55516602 274.20781738 -22.74267578 274.50805664 C-66.90660738 285.12285495 -118.42602292 286.93729243 -158.52124023 262.83935547 C-188.58519825 243.89494357 -206.12627243 215.8040323 -215 182 C-215.20109375 181.25137695 -215.4021875 180.50275391 -215.609375 179.73144531 C-224.46268788 146.15764899 -224.67194725 106.14495564 -214 73 C-213.80067871 72.3802832 -213.60135742 71.76056641 -213.39599609 71.12207031 C-207.82176855 54.18912043 -199.55533911 38.58684227 -188 25 C-187.28328125 24.13246094 -186.5665625 23.26492187 -185.828125 22.37109375 C-169.05552069 2.8132577 -146.13047604 -10.34297175 -120.97265625 -15.578125 C-119.09737551 -15.97917514 -117.23542855 -16.44114286 -115.375 -16.90625 C-82.29605042 -24.22700114 -27.35412754 -22.15741437 0 0 Z " fill="#FEFEFE" transform="translate(363,125)"/>
</svg>
