<?xml version="1.0" encoding="UTF-8"?>
<svg version="1.1" xmlns="http://www.w3.org/2000/svg" width="512" height="512">
<path d="M0 0 C1.58336403 -0.01925285 1.58336403 -0.01925285 3.19871521 -0.03889465 C4.33204788 -0.04628159 5.46538055 -0.05366852 6.63305664 -0.0612793 C7.81356094 -0.06935104 8.99406525 -0.07742279 10.21034241 -0.08573914 C12.71101421 -0.09956104 15.21170473 -0.11029164 17.71240234 -0.11816406 C20.25021964 -0.1296474 22.78801349 -0.15004067 25.32568359 -0.1796875 C47.64551942 -0.44028698 64.36768309 0.94578354 81.28540039 16.8293457 C94.67758621 30.37935189 98.91731339 46.23936469 98.89588928 64.83958435 C98.87312503 67.72300348 98.83215549 70.60625594 98.79321289 73.48950195 C98.73133789 79.98637695 98.66946289 86.48325195 98.60571289 93.17700195 C77.81571289 93.17700195 57.02571289 93.17700195 35.60571289 93.17700195 C37.58571289 89.21700195 39.56571289 85.25700195 41.60571289 81.17700195 C44.13004326 73.66119633 46.46698836 64.12257142 45.60571289 56.17700195 C43.96722866 53.80167651 42.66074786 52.38776086 39.76280212 51.80885315 C37.44072132 51.66309761 35.15094852 51.6490309 32.82446289 51.6809082 C31.97396362 51.67945297 31.12346436 51.67799774 30.24719238 51.67649841 C28.45178801 51.67815594 26.65636923 51.68970098 24.86108398 51.71044922 C22.1151892 51.73940203 19.3712259 51.73105619 16.62524414 51.71801758 C14.87914102 51.72425538 13.13304399 51.73264664 11.38696289 51.7434082 C10.56707886 51.74047256 9.74719482 51.73753693 8.90246582 51.73451233 C5.58060268 51.78940457 3.07355778 51.92493352 0.11938477 53.51660156 C-3.07091245 57.01615178 -2.54008496 61.19483794 -2.534729 65.6413269 C-2.53770013 66.40807019 -2.54067125 67.17481348 -2.5437324 67.96479142 C-2.55242524 70.54188689 -2.55392814 73.11893594 -2.55541992 75.69604492 C-2.56004764 77.54056905 -2.56507223 79.38509221 -2.57046509 81.22961426 C-2.58359451 86.2461409 -2.59003496 91.26265416 -2.59447575 96.27919531 C-2.59740525 99.4118515 -2.60150979 102.54450401 -2.60597992 105.67715836 C-2.61965551 115.47434945 -2.62932219 125.27153216 -2.63318181 135.06873214 C-2.6376646 146.38616613 -2.65522251 157.70347947 -2.68418241 169.02087677 C-2.70578031 177.76404535 -2.71588506 186.50717993 -2.71722293 195.25037491 C-2.7182722 200.47470174 -2.72420608 205.69891516 -2.74204254 210.92321396 C-2.7584908 215.83649387 -2.76069454 220.74957473 -2.75190353 225.66287231 C-2.75113145 227.46684425 -2.75549837 229.27082675 -2.76536179 231.07477188 C-2.77803226 233.53632301 -2.77223151 235.99716388 -2.76177979 238.45870972 C-2.76983619 239.17359743 -2.77789259 239.88848514 -2.78619313 240.62503612 C-2.74300032 244.97052905 -2.05815169 247.71819236 0.60571289 251.17700195 C3.90109343 252.82469223 7.56746351 252.38303626 11.19165039 252.4152832 C12.47164413 252.42739082 12.47164413 252.42739082 13.77749634 252.43974304 C15.58479785 252.45358344 17.39212549 252.46430579 19.19946289 252.47216797 C21.96298702 252.48939148 24.72531805 252.53327787 27.48852539 252.57739258 C29.24372492 252.58751861 30.99893462 252.596035 32.75415039 252.6027832 C33.58030853 252.62029129 34.40646667 252.63779938 35.25765991 252.65583801 C36.03171173 252.65291245 36.80576355 252.64998688 37.60327148 252.64697266 C38.28118744 252.6528389 38.95910339 252.65870514 39.65756226 252.66474915 C42.64207522 251.91753392 43.78150369 250.62590849 45.60571289 248.17700195 C46.22233552 244.99422972 46.22233552 244.99422972 46.15161133 241.38891602 C46.16711784 240.3785453 46.16711784 240.3785453 46.18293762 239.34776306 C46.21235295 237.12913998 46.2138644 234.91142966 46.21508789 232.69262695 C46.23007055 231.15132916 46.24679788 229.61004741 46.26519775 228.06878662 C46.3088746 224.01803854 46.32887087 219.96750702 46.34393311 215.91656494 C46.36350316 211.78059074 46.40547322 207.64485047 46.44555664 203.5090332 C46.52086225 195.39841732 46.57115133 187.2878933 46.60571289 179.17700195 C44.35242819 179.93914237 42.10343831 180.71127162 39.85571289 181.48950195 C39.22149414 181.7028418 38.58727539 181.91618164 37.93383789 182.13598633 C34.33470813 183.39193265 31.57554886 184.81084759 28.60571289 187.17700195 C27.94571289 187.17700195 27.28571289 187.17700195 26.60571289 187.17700195 C26.60571289 167.37700195 26.60571289 147.57700195 26.60571289 127.17700195 C53.99571289 127.17700195 81.38571289 127.17700195 109.60571289 127.17700195 C107.60571289 131.17700195 107.60571289 131.17700195 106.64086914 133.0793457 C100.93692948 145.01409495 99.46552613 158.06571009 99.44799805 171.14648438 C99.44291733 171.9933783 99.43783661 172.84027222 99.43260193 173.71282959 C99.42197542 175.53624152 99.41332561 177.35966587 99.4064827 179.18309593 C99.39457208 182.08195383 99.37508911 184.98067072 99.35336304 187.87947083 C99.29215692 196.11637594 99.23784025 204.35326363 99.2043457 212.59033203 C99.18324774 217.64534941 99.14782976 222.70010322 99.1035881 227.75496864 C99.08955252 229.66642442 99.08073423 231.57792675 99.07753372 233.48943138 C99.0400817 253.71672024 96.6786024 271.76642649 81.92211914 286.99731445 C68.80337916 299.34176118 54.85501374 304.67358372 36.88696289 304.57543945 C35.70783325 304.57830963 34.52870361 304.58117981 33.31384277 304.58413696 C30.83642086 304.58616616 28.35898249 304.58071707 25.8815918 304.56811523 C22.11608637 304.55204622 18.35165417 304.56800424 14.58618164 304.5871582 C12.16560638 304.58517557 9.74503179 304.58133148 7.32446289 304.57543945 C6.21268677 304.58151215 5.10091064 304.58758484 3.95544434 304.59384155 C-12.09865381 304.451266 -26.83069257 298.42806691 -38.39428711 287.17700195 C-52.64121356 270.89480029 -54.69729506 254.25387609 -54.68481445 233.64501953 C-54.69080596 231.66790515 -54.69761293 229.6907931 -54.70516968 227.71368408 C-54.72277453 222.36425353 -54.72752276 217.01488704 -54.72880125 211.66543031 C-54.73022665 208.3167335 -54.73450364 204.96805277 -54.73979568 201.61935997 C-54.75827845 189.91810454 -54.76646858 178.21689455 -54.76489258 166.515625 C-54.763692 155.63885491 -54.78478263 144.76228351 -54.8163799 133.88556367 C-54.84260367 124.52213834 -54.8532573 115.15877766 -54.85198176 105.79531592 C-54.85147388 100.21416361 -54.85706049 94.63318798 -54.87833786 89.05207253 C-54.89782299 83.79799693 -54.89777489 78.5442647 -54.8833046 73.29017639 C-54.88122803 71.3726825 -54.88584783 69.45516653 -54.89802551 67.53771019 C-55.01068814 48.55375242 -52.04222679 31.60336589 -38.51928711 17.11450195 C-27.88760877 7.42091288 -14.65917857 0.15622159 0 0 Z " fill="#000000" transform="translate(228.394287109375,103.822998046875)"/>
<path d="M0 0 C1.01790619 0.00215515 2.03581238 0.0043103 3.08456421 0.00653076 C17.69363523 0.05620146 32.02575853 0.30709809 46.375 3.3125 C47.34985352 3.51117676 48.32470703 3.70985352 49.32910156 3.91455078 C97.7109774 14.03517194 141.69928269 35.9516877 177.375 70.3125 C178.3640332 71.26068604 178.3640332 71.26068604 179.37304688 72.22802734 C188.86130305 81.37247479 197.6012044 90.66984009 205.375 101.3125 C206.23306152 102.46355017 207.09113451 103.61459177 207.94921875 104.765625 C213.98736829 112.95680614 219.34595521 121.47054105 224.375 130.3125 C224.73948242 130.94430176 225.10396484 131.57610352 225.47949219 132.22705078 C247.08534998 169.97532572 256.85198095 212.74189997 256.6875 255.9375 C256.68534485 256.95540619 256.6831897 257.97331238 256.68096924 259.02206421 C256.63129854 273.63113523 256.38040191 287.96325853 253.375 302.3125 C253.07698486 303.77478027 253.07698486 303.77478027 252.77294922 305.26660156 C242.65232806 353.6484774 220.7358123 397.63678269 186.375 433.3125 C185.74287598 433.97185547 185.11075195 434.63121094 184.45947266 435.31054688 C175.31502521 444.79880305 166.01765991 453.5387044 155.375 461.3125 C154.22394983 462.17056152 153.07290823 463.02863451 151.921875 463.88671875 C143.73224019 469.92427396 135.22961724 475.30707302 126.375 480.3125 C125.66778809 480.7146875 124.96057617 481.116875 124.23193359 481.53125 C101.09654164 494.5566741 75.92537591 503.30551461 49.9375 508.625 C49.21860596 508.77235596 48.49971191 508.91971191 47.7590332 509.0715332 C33.08339502 511.86090125 18.55831162 512.66142619 3.64770508 512.62817383 C0.70811513 512.6250221 -2.2304558 512.64854926 -5.16992188 512.67382812 C-18.54306192 512.71848737 -31.43916711 511.51301542 -44.625 509.3125 C-46.33055054 509.03031616 -46.33055054 509.03031616 -48.07055664 508.74243164 C-91.33802759 500.97044532 -132.38793216 480.98345309 -165.625 452.3125 C-166.37007813 451.67828125 -167.11515625 451.0440625 -167.8828125 450.390625 C-181.38779833 438.57948485 -194.05918743 425.82889772 -204.625 411.3125 C-205.48149066 410.16255169 -206.33826433 409.01281411 -207.1953125 407.86328125 C-213.23534209 399.67315742 -218.61867614 391.16870382 -223.625 382.3125 C-224.0271875 381.60528809 -224.429375 380.89807617 -224.84375 380.16943359 C-237.8691741 357.03404164 -246.61801461 331.86287591 -251.9375 305.875 C-252.08485596 305.15610596 -252.23221191 304.43721191 -252.3840332 303.6965332 C-255.35789088 288.05024391 -255.99800362 272.57681954 -255.9375 256.6875 C-255.93534485 255.66959381 -255.9331897 254.65168762 -255.93096924 253.60293579 C-255.88129854 238.99386477 -255.63040191 224.66174147 -252.625 210.3125 C-252.42632324 209.33764648 -252.22764648 208.36279297 -252.02294922 207.35839844 C-241.90232806 158.9765226 -219.9858123 114.98821731 -185.625 79.3125 C-184.99287598 78.65314453 -184.36075195 77.99378906 -183.70947266 77.31445312 C-174.56502521 67.82619695 -165.26765991 59.0862956 -154.625 51.3125 C-153.47394983 50.45443848 -152.32290823 49.59636549 -151.171875 48.73828125 C-142.98224019 42.70072604 -134.47961724 37.31792698 -125.625 32.3125 C-124.91778809 31.9103125 -124.21057617 31.508125 -123.48193359 31.09375 C-100.34654164 18.0683259 -75.17537591 9.31948539 -49.1875 4 C-48.46860596 3.85264404 -47.74971191 3.70528809 -47.0090332 3.5534668 C-31.36274391 0.57960912 -15.88931954 -0.06050362 0 0 Z M-151.625 63.3125 C-152.48520752 63.99916748 -152.48520752 63.99916748 -153.36279297 64.69970703 C-168.08458245 76.56446049 -182.29452328 90.1470927 -193.625 105.3125 C-194.04652344 105.86292969 -194.46804687 106.41335937 -194.90234375 106.98046875 C-201.84236818 116.04378677 -208.01006198 125.37741003 -213.625 135.3125 C-213.98803223 135.94285156 -214.35106445 136.57320313 -214.72509766 137.22265625 C-232.92753928 169.01871661 -244.52748756 207.07624768 -244.86328125 243.8671875 C-244.8730751 244.75816132 -244.88286896 245.64913513 -244.89295959 246.56710815 C-245.06684612 266.49967657 -244.82154256 285.73828192 -240.625 305.3125 C-240.31151611 306.82432861 -240.31151611 306.82432861 -239.99169922 308.36669922 C-232.6541575 342.88887114 -217.74438119 376.68414086 -195.625 404.3125 C-194.98304688 405.14523437 -194.34109375 405.97796875 -193.6796875 406.8359375 C-188.36082387 413.66217139 -182.59081816 420.05166886 -176.625 426.3125 C-176.05330078 426.91288086 -175.48160156 427.51326172 -174.89257812 428.13183594 C-166.88838806 436.47635486 -158.66837853 444.12013742 -149.37548828 451.00634766 C-147.61610314 452.31913852 -145.88351821 453.66201419 -144.15234375 455.01171875 C-96.00738472 492.06208802 -31.19282745 507.88005088 28.77734375 500.5625 C71.94328106 494.86755566 114.1182672 479.73858517 148.375 452.3125 C149.20773437 451.67054688 150.04046875 451.02859375 150.8984375 450.3671875 C157.72467139 445.04832387 164.11416886 439.27831816 170.375 433.3125 C171.27557129 432.45495117 171.27557129 432.45495117 172.19433594 431.58007812 C180.53885486 423.57588806 188.18263742 415.35587853 195.06884766 406.06298828 C196.38163852 404.30360314 197.72451419 402.57101821 199.07421875 400.83984375 C221.58227024 371.5918433 235.44594859 336.35431006 242.375 300.3125 C242.62056641 299.13107422 242.62056641 299.13107422 242.87109375 297.92578125 C248.70782179 269.12804043 247.5111378 235.93370367 241.375 207.3125 C241.06151611 205.80067139 241.06151611 205.80067139 240.74169922 204.25830078 C233.4041575 169.73612886 218.49438119 135.94085914 196.375 108.3125 C195.41207031 107.06339844 195.41207031 107.06339844 194.4296875 105.7890625 C182.05288877 89.90466899 167.45760513 74.46242177 151.375 62.3125 C150.75351074 61.83635254 150.13202148 61.36020508 149.49169922 60.86962891 C70.11215193 0.3603797 -39.93667193 -5.71800742 -151.625 63.3125 Z " fill="#000000" transform="translate(255.625,-0.3125)"/>
</svg>
