<?xml version="1.0" encoding="UTF-8"?>
<svg version="1.1" xmlns="http://www.w3.org/2000/svg" width="512" height="512">
<path d="M0 0 C1.36840279 -0.0129007 1.36840279 -0.0129007 2.76445007 -0.02606201 C4.2551149 -0.03245193 4.2551149 -0.03245193 5.77589417 -0.03897095 C6.82848923 -0.04714844 7.88108429 -0.05532593 8.96557617 -0.06375122 C12.4525547 -0.08858029 15.93949244 -0.10511905 19.42652893 -0.11953735 C21.21706035 -0.12752287 21.21706035 -0.12752287 23.04376411 -0.13566971 C29.36755353 -0.16239627 35.69132329 -0.18176888 42.01515198 -0.19619751 C47.23440678 -0.20951131 52.45326828 -0.23731831 57.67237854 -0.27822876 C63.9858971 -0.32771374 70.29906016 -0.35233875 76.61276436 -0.35942459 C79.01076703 -0.36611203 81.40876256 -0.38126807 83.80665398 -0.4053154 C100.55023465 -0.56358751 114.74021318 -0.23831273 127.43043518 12.15390015 C132.30544272 17.53288461 135.11993897 22.53290772 138.43043518 29.15390015 C149.65043518 29.15390015 160.87043518 29.15390015 172.43043518 29.15390015 C174.90543518 24.20390015 174.90543518 24.20390015 177.43043518 19.15390015 C184.463923 9.2887484 193.74098926 3.10732473 205.43043518 0.15390015 C209.07326606 -0.25647767 212.68018209 -0.27702377 216.34352112 -0.26602173 C217.92350891 -0.27872604 217.92350891 -0.27872604 219.53541565 -0.29168701 C222.99533888 -0.3149623 226.45481479 -0.31608124 229.91481018 -0.31484985 C232.33703283 -0.32195809 234.7592538 -0.32965806 237.18147278 -0.33792114 C242.25181256 -0.351345 247.3219967 -0.3529445 252.39234924 -0.34707642 C258.86265862 -0.34118841 265.33221557 -0.37174577 271.80237961 -0.4121933 C276.80411239 -0.43815331 281.80566612 -0.44094004 286.80745697 -0.43730164 C289.19148394 -0.4389857 291.57551982 -0.44855879 293.95948029 -0.46644592 C312.21986713 -0.58836744 325.31685101 0.69127961 339.10231018 13.7359314 C346.96430947 22.06397703 350.54747383 32.18995604 350.70387268 43.4078064 C350.71649139 44.21688446 350.72911011 45.02596252 350.74211121 45.85955811 C351.16832082 79.74423645 351.16832082 79.74423645 345.43043518 93.15390015 C345.13572327 93.8593396 344.84101135 94.56477905 344.53736877 95.29159546 C340.68405008 104.2486077 335.92204599 111.84090184 329.43043518 119.15390015 C328.90191956 119.82421265 328.37340393 120.49452515 327.82887268 121.18515015 C315.0799135 137.0114443 294.39964241 147.46442159 274.43043518 150.15390015 C249.77260981 152.28109762 225.80926979 148.70400084 205.93043518 133.09140015 C204.4217455 131.78889806 202.92102938 130.47707254 201.43043518 129.15390015 C200.76012268 128.62538452 200.08981018 128.0968689 199.39918518 127.55233765 C185.66348718 116.48746981 177.0816443 100.27596011 172.43043518 83.52890015 C172.11852234 82.43907837 172.11852234 82.43907837 171.80030823 81.32723999 C169.93680124 73.93034978 170.43043518 68.3060531 170.43043518 60.15390015 C160.53043518 60.15390015 150.63043518 60.15390015 140.43043518 60.15390015 C140.43043518 64.77390015 140.43043518 69.39390015 140.43043518 74.15390015 C139.8911671 77.44654659 139.33593955 80.36367258 138.43043518 83.52890015 C138.21040833 84.32417114 137.99038147 85.11944214 137.76368713 85.93881226 C134.06889032 98.52918635 128.14277134 109.33918675 119.43043518 119.15390015 C118.90191956 119.82421265 118.37340393 120.49452515 117.82887268 121.18515015 C105.0799135 137.0114443 84.39964241 147.46442159 64.43043518 150.15390015 C39.77260981 152.28109762 15.80926979 148.70400084 -4.06956482 133.09140015 C-5.5782545 131.78889806 -7.07897062 130.47707254 -8.56956482 129.15390015 C-9.23987732 128.62538452 -9.91018982 128.0968689 -10.60081482 127.55233765 C-21.72234453 118.5933276 -29.19300607 106.20341511 -34.56956482 93.15390015 C-34.84204041 92.51468628 -35.11451599 91.87547241 -35.39524841 91.21688843 C-40.17661444 79.35778333 -40.09142313 66.87170881 -40.19456482 54.27890015 C-40.20777771 53.43382904 -40.2209906 52.58875793 -40.23460388 51.71807861 C-40.42935454 35.52255883 -37.43717682 23.58189505 -25.98753357 11.48202515 C-19.11764534 4.99658321 -9.53068737 0.0671736 0 0 Z " fill="#000000" transform="translate(100.56956481933594,-0.153900146484375)"/>
<path d="M0 0 C9.34505328 6.85407054 17.20851133 16.70196918 19.421875 28.35546875 C19.53577713 30.89450601 19.59957814 33.40741049 19.61474609 35.94702148 C19.62701233 37.0870034 19.62701233 37.0870034 19.63952637 38.25001526 C19.66431485 40.7630232 19.68088635 43.27597457 19.6953125 45.7890625 C19.70063618 46.65177324 19.70595985 47.51448399 19.71144485 48.40333748 C19.73815773 52.97648351 19.75753202 57.54960252 19.77197266 62.12280273 C19.78526558 65.88704987 19.81303425 69.65074895 19.85400391 73.41479492 C19.90365752 77.97769437 19.9281342 82.54010012 19.93519974 87.10325813 C19.94186173 88.83141536 19.9569498 90.55956378 19.98109055 92.28756523 C20.19220263 108.32368003 17.19099246 120.03156191 5.83984375 132.02734375 C-4.69054541 141.96844106 -16.64232858 143.92508712 -30.4375 143.6953125 C-42.77517949 143.15073727 -52.46961875 136.95574856 -60.765625 128.16796875 C-67.40075043 120.01306599 -70.70912372 111.12336975 -70.77099609 100.76391602 C-70.77917358 100.00392807 -70.78735107 99.24394012 -70.79577637 98.46092224 C-70.82056485 95.9479143 -70.83713635 93.43496293 -70.8515625 90.921875 C-70.85688618 90.05916426 -70.86220985 89.19645351 -70.86769485 88.30760002 C-70.89440773 83.73445399 -70.91378202 79.16133498 -70.92822266 74.58813477 C-70.94151558 70.82388763 -70.96928425 67.06018855 -71.01025391 63.29614258 C-71.05990752 58.73324313 -71.0843842 54.17083738 -71.09144974 49.60767937 C-71.09811173 47.87952214 -71.1131998 46.15137372 -71.13734055 44.42337227 C-71.34845263 28.38725747 -68.34724246 16.67937559 -56.99609375 4.68359375 C-41.74951 -9.70977485 -17.37512065 -11.0832209 0 0 Z M-36.578125 28.35546875 C-40.30478031 33.36717762 -40.70087192 38.21376959 -40.72338867 44.31982422 C-40.72976852 45.49809784 -40.73614838 46.67637146 -40.74272156 47.89035034 C-40.74383438 49.15501129 -40.7449472 50.41967224 -40.74609375 51.72265625 C-40.74942215 53.03074249 -40.75275055 54.33882874 -40.75617981 55.68655396 C-40.76215524 58.45201442 -40.76402134 61.2174437 -40.76342773 63.98291016 C-40.7633262 67.51219794 -40.77697626 71.04128415 -40.79419994 74.57052422 C-40.80804688 77.95457102 -40.80741004 81.33858152 -40.80859375 84.72265625 C-40.81577927 85.98326874 -40.82296478 87.24388123 -40.83036804 88.54269409 C-40.99641401 99.13843227 -40.99641401 99.13843227 -36.140625 108.16796875 C-31.52720117 112.10625738 -28.98794087 112.80092755 -23.0859375 112.671875 C-19.38590587 112.20504858 -17.31998803 110.82983295 -14.578125 108.35546875 C-10.85146969 103.34375988 -10.45537808 98.49716791 -10.43286133 92.39111328 C-10.42648148 91.21283966 -10.42010162 90.03456604 -10.41352844 88.82058716 C-10.41241562 87.55592621 -10.4113028 86.29126526 -10.41015625 84.98828125 C-10.40682785 83.68019501 -10.40349945 82.37210876 -10.40007019 81.02438354 C-10.39409476 78.25892308 -10.39222866 75.4934938 -10.39282227 72.72802734 C-10.3929238 69.19873956 -10.37927374 65.66965335 -10.36205006 62.14041328 C-10.34820312 58.75636648 -10.34883996 55.37235598 -10.34765625 51.98828125 C-10.34047073 50.72766876 -10.33328522 49.46705627 -10.32588196 48.16824341 C-10.15983599 37.57250523 -10.15983599 37.57250523 -15.015625 28.54296875 C-19.62904883 24.60468012 -22.16830913 23.91000995 -28.0703125 24.0390625 C-31.77034413 24.50588892 -33.83626197 25.88110455 -36.578125 28.35546875 Z " fill="#000000" transform="translate(341.578125,368.64453125)"/>
<path d="M0 0 C9.34505328 6.85407054 17.20851133 16.70196918 19.421875 28.35546875 C19.53577713 30.89450601 19.59957814 33.40741049 19.61474609 35.94702148 C19.62701233 37.0870034 19.62701233 37.0870034 19.63952637 38.25001526 C19.66431485 40.7630232 19.68088635 43.27597457 19.6953125 45.7890625 C19.70063618 46.65177324 19.70595985 47.51448399 19.71144485 48.40333748 C19.73815773 52.97648351 19.75753202 57.54960252 19.77197266 62.12280273 C19.78526558 65.88704987 19.81303425 69.65074895 19.85400391 73.41479492 C19.90365752 77.97769437 19.9281342 82.54010012 19.93519974 87.10325813 C19.94186173 88.83141536 19.9569498 90.55956378 19.98109055 92.28756523 C20.19220263 108.32368003 17.19099246 120.03156191 5.83984375 132.02734375 C-4.69054541 141.96844106 -16.64232858 143.92508712 -30.4375 143.6953125 C-42.77517949 143.15073727 -52.46961875 136.95574856 -60.765625 128.16796875 C-67.40075043 120.01306599 -70.70912372 111.12336975 -70.77099609 100.76391602 C-70.77917358 100.00392807 -70.78735107 99.24394012 -70.79577637 98.46092224 C-70.82056485 95.9479143 -70.83713635 93.43496293 -70.8515625 90.921875 C-70.85688618 90.05916426 -70.86220985 89.19645351 -70.86769485 88.30760002 C-70.89440773 83.73445399 -70.91378202 79.16133498 -70.92822266 74.58813477 C-70.94151558 70.82388763 -70.96928425 67.06018855 -71.01025391 63.29614258 C-71.05990752 58.73324313 -71.0843842 54.17083738 -71.09144974 49.60767937 C-71.09811173 47.87952214 -71.1131998 46.15137372 -71.13734055 44.42337227 C-71.34845263 28.38725747 -68.34724246 16.67937559 -56.99609375 4.68359375 C-41.74951 -9.70977485 -17.37512065 -11.0832209 0 0 Z M-36.578125 28.35546875 C-40.30478031 33.36717762 -40.70087192 38.21376959 -40.72338867 44.31982422 C-40.72976852 45.49809784 -40.73614838 46.67637146 -40.74272156 47.89035034 C-40.74383438 49.15501129 -40.7449472 50.41967224 -40.74609375 51.72265625 C-40.74942215 53.03074249 -40.75275055 54.33882874 -40.75617981 55.68655396 C-40.76215524 58.45201442 -40.76402134 61.2174437 -40.76342773 63.98291016 C-40.7633262 67.51219794 -40.77697626 71.04128415 -40.79419994 74.57052422 C-40.80804688 77.95457102 -40.80741004 81.33858152 -40.80859375 84.72265625 C-40.81577927 85.98326874 -40.82296478 87.24388123 -40.83036804 88.54269409 C-40.99641401 99.13843227 -40.99641401 99.13843227 -36.140625 108.16796875 C-31.52720117 112.10625738 -28.98794087 112.80092755 -23.0859375 112.671875 C-19.38590587 112.20504858 -17.31998803 110.82983295 -14.578125 108.35546875 C-10.85146969 103.34375988 -10.45537808 98.49716791 -10.43286133 92.39111328 C-10.42648148 91.21283966 -10.42010162 90.03456604 -10.41352844 88.82058716 C-10.41241562 87.55592621 -10.4113028 86.29126526 -10.41015625 84.98828125 C-10.40682785 83.68019501 -10.40349945 82.37210876 -10.40007019 81.02438354 C-10.39409476 78.25892308 -10.39222866 75.4934938 -10.39282227 72.72802734 C-10.3929238 69.19873956 -10.37927374 65.66965335 -10.36205006 62.14041328 C-10.34820312 58.75636648 -10.34883996 55.37235598 -10.34765625 51.98828125 C-10.34047073 50.72766876 -10.33328522 49.46705627 -10.32588196 48.16824341 C-10.15983599 37.57250523 -10.15983599 37.57250523 -15.015625 28.54296875 C-19.62904883 24.60468012 -22.16830913 23.91000995 -28.0703125 24.0390625 C-31.77034413 24.50588892 -33.83626197 25.88110455 -36.578125 28.35546875 Z " fill="#000000" transform="translate(221.578125,368.64453125)"/>
<path d="M0 0 C9.18915145 6.73972532 17.51011573 16.77870427 19.421875 28.35546875 C19.5928956 30.99647535 19.69801698 33.58845246 19.734375 36.23046875 C19.77788086 37.27267578 19.77788086 37.27267578 19.82226562 38.3359375 C19.88591491 43.53559466 18.78593442 46.42404667 15.421875 50.35546875 C10.19927643 54.41177273 4.76847358 54.12944419 -1.578125 53.35546875 C-6.22320097 51.15516961 -8.24711798 48.84599181 -10.578125 44.35546875 C-11.10521987 42.20449574 -11.56099685 40.03509014 -11.953125 37.85546875 C-13.1189796 32.40247687 -14.04440165 29.61044962 -18.578125 26.35546875 C-22.26748192 24.51079029 -26.54247842 25.00537323 -30.578125 25.35546875 C-34.82050119 27.07047189 -36.62558165 29.25512771 -38.578125 33.35546875 C-39.4967346 37.05429305 -39.70935961 40.51544684 -39.72338867 44.31982422 C-39.72976852 45.49809784 -39.73614838 46.67637146 -39.74272156 47.89035034 C-39.74383438 49.15501129 -39.7449472 50.41967224 -39.74609375 51.72265625 C-39.74942215 53.03074249 -39.75275055 54.33882874 -39.75617981 55.68655396 C-39.76215524 58.45201442 -39.76402134 61.2174437 -39.76342773 63.98291016 C-39.7633262 67.51219794 -39.77697626 71.04128415 -39.79419994 74.57052422 C-39.80804688 77.95457102 -39.80741004 81.33858152 -39.80859375 84.72265625 C-39.81577927 85.98326874 -39.82296478 87.24388123 -39.83036804 88.54269409 C-39.99035402 99.1825439 -39.99035402 99.1825439 -35.078125 108.23046875 C-31.00786211 111.6901922 -28.25919843 111.63780616 -23.0546875 111.5703125 C-19.80758341 111.28862366 -18.02630377 110.50689857 -15.578125 108.35546875 C-12.95074539 104.59731816 -12.01042002 101.34277096 -11.203125 96.85546875 C-9.64213289 89.58453181 -7.68595755 87.42735712 -1.578125 83.35546875 C3.97585723 82.66622997 8.89297645 82.63125365 13.984375 85.04296875 C17.55072632 88.42643025 19.23506572 90.9481722 19.890625 95.88671875 C20.00596921 110.53543382 16.0115546 121.27798018 5.83984375 132.02734375 C-4.69054541 141.96844106 -16.64232858 143.92508712 -30.4375 143.6953125 C-42.77517949 143.15073727 -52.46961875 136.95574856 -60.765625 128.16796875 C-67.40075043 120.01306599 -70.70912372 111.12336975 -70.77099609 100.76391602 C-70.77917358 100.00392807 -70.78735107 99.24394012 -70.79577637 98.46092224 C-70.82056485 95.9479143 -70.83713635 93.43496293 -70.8515625 90.921875 C-70.85688618 90.05916426 -70.86220985 89.19645351 -70.86769485 88.30760002 C-70.89440773 83.73445399 -70.91378202 79.16133498 -70.92822266 74.58813477 C-70.94151558 70.82388763 -70.96928425 67.06018855 -71.01025391 63.29614258 C-71.05990752 58.73324313 -71.0843842 54.17083738 -71.09144974 49.60767937 C-71.09811173 47.87952214 -71.1131998 46.15137372 -71.13734055 44.42337227 C-71.34845263 28.38725747 -68.34724246 16.67937559 -56.99609375 4.68359375 C-41.74951 -9.70977485 -17.37512065 -11.0832209 0 0 Z " fill="#000000" transform="translate(101.578125,368.64453125)"/>
<path d="M0 0 C4.58001329 2.16947998 6.92621104 4.41325454 9 9 C9.43060699 12.58648582 9.37873213 16.14888337 9.34057617 19.75708008 C9.34123329 21.38214478 9.34123329 21.38214478 9.34190369 23.04003906 C9.33981566 26.61672053 9.31648319 30.19293178 9.29296875 33.76953125 C9.28737287 36.25102991 9.28310273 38.73253188 9.28010559 41.21403503 C9.26865631 47.74235194 9.23918808 54.27046832 9.20599365 60.79870605 C9.17367254 67.4614687 9.16160061 74.12428968 9.14648438 80.78710938 C9.11431875 93.85815842 9.06369855 106.92906854 9 120 C9.93841232 119.98667633 9.93841232 119.98667633 10.89578247 119.9730835 C17.4170822 119.88447305 23.93821041 119.8242087 30.45996094 119.78027344 C32.89264881 119.76017929 35.32528851 119.73289912 37.7578125 119.69824219 C41.25793355 119.6496294 44.75741502 119.62700861 48.2578125 119.609375 C49.34240753 119.58872986 50.42700256 119.56808472 51.54446411 119.54681396 C57.69243777 119.54499401 61.34357492 119.8466884 66 124 C70.05630398 129.22259857 69.77397544 134.65340142 69 141 C66.81985455 145.60252929 64.52380998 147.78034191 60 150 C56.70570374 150.38768005 56.70570374 150.38768005 52.91821289 150.40405273 C51.87818871 150.41434761 51.87818871 150.41434761 50.81715393 150.42485046 C48.53544372 150.44308446 46.25442337 150.43928604 43.97265625 150.43359375 C42.37991615 150.43815731 40.78717803 150.44346341 39.19444275 150.44947815 C35.85977163 150.45840262 32.52534008 150.45599393 29.19067383 150.44604492 C24.9256803 150.43455775 20.66151503 150.45476552 16.39663029 150.48396206 C13.10825889 150.50234382 9.82008524 150.50202769 6.53167534 150.49632454 C4.95965857 150.49617156 3.3876282 150.50219697 1.81566048 150.51461601 C-0.38635476 150.52956205 -2.58684939 150.51882476 -4.78881836 150.50170898 C-6.03948593 150.50154282 -7.2901535 150.50137665 -8.57872009 150.50120544 C-12.71605185 149.89510093 -14.80103854 148.66635709 -18 146 C-20.60626391 142.36901055 -21.37643724 139.87435034 -21.38768005 135.4278717 C-21.39758469 134.31900101 -21.40748932 133.21013031 -21.41769409 132.06765747 C-21.41319244 130.86076263 -21.4086908 129.6538678 -21.40405273 128.41040039 C-21.41091599 127.1318367 -21.41777924 125.85327301 -21.42485046 124.53596497 C-21.44277249 121.0358969 -21.44161536 117.53607966 -21.43590808 114.03597951 C-21.43281472 111.11104452 -21.43891032 108.1861576 -21.44494683 105.26122946 C-21.45898737 98.35941492 -21.45743481 91.45772417 -21.44604492 84.5559082 C-21.43456465 77.44225076 -21.44863861 70.32897037 -21.4754414 63.21536261 C-21.49761285 57.10139123 -21.50423253 50.98753809 -21.49836498 44.87352937 C-21.49499755 41.22473301 -21.49739592 37.57617831 -21.51461601 33.92741585 C-21.532985 29.85769983 -21.51888337 25.78871534 -21.50170898 21.71899414 C-21.51137695 20.51412354 -21.52104492 19.30925293 -21.53100586 18.06787109 C-21.47522843 11.76256582 -21.33117404 7.74687136 -17 3 C-11.77740143 -1.05630398 -6.34659858 -0.77397544 0 0 Z " fill="#000000" transform="translate(412,362)"/>
<path d="M0 0 C3.90967934 2.05466127 6.26687697 4.19844242 7.8984375 8.27734375 C9.07420811 13.15495465 9.5909772 17.7921104 7.2109375 22.4140625 C0.71132077 31.64119696 -9.09224135 38.65554099 -18.1015625 45.27734375 C-18.66939453 45.69483887 -19.23722656 46.11233398 -19.82226562 46.54248047 C-43.92030758 63.97966869 -71.04883748 74.6415973 -100.1015625 80.27734375 C-101.28234375 80.52355469 -102.463125 80.76976562 -103.6796875 81.0234375 C-111.60426939 82.43854141 -119.56798207 82.53932673 -127.6015625 82.65234375 C-128.7369043 82.67852783 -129.87224609 82.70471191 -131.04199219 82.73168945 C-137.1727796 82.74401677 -141.43532605 82.71632842 -146.1015625 78.27734375 C-150.15786648 73.05474518 -149.87553794 67.62394233 -149.1015625 61.27734375 C-146.96809872 56.77336467 -144.66221818 54.29251719 -140.1015625 52.27734375 C-135.23448715 51.43244803 -130.4702587 51.13623587 -125.5390625 50.96484375 C-84.40978154 48.81979986 -48.16785105 31.25283474 -18.51171875 3.34375 C-13.091476 -1.30342733 -6.85460698 -2.35706745 0 0 Z " fill="#000000" transform="translate(390.1015625,188.72265625)"/>
<path d="M0 0 C4.57511951 2.16716188 6.94129305 4.40932013 9 9 C9.36245433 12.61227562 9.2824631 16.18685763 9.1875 19.8125 C9.16719727 21.28106445 9.16719727 21.28106445 9.14648438 22.77929688 C9.11125312 25.18676625 9.06199265 27.59309564 9 30 C9.60473145 29.97905273 10.20946289 29.95810547 10.83251953 29.93652344 C13.59650771 29.85291055 16.36022913 29.80119946 19.125 29.75 C20.07632813 29.71648437 21.02765625 29.68296875 22.0078125 29.6484375 C27.84778913 29.56732671 31.49620977 29.87503324 36 34 C40.05630398 39.22259857 39.77397544 44.65340142 39 51 C36.83283812 55.57511951 34.59067987 57.94129305 30 60 C26.38772438 60.36245433 22.81314237 60.2824631 19.1875 60.1875 C18.20845703 60.17396484 17.22941406 60.16042969 16.22070312 60.14648438 C13.81323375 60.11125312 11.40690436 60.06199265 9 60 C9.02094727 60.60473145 9.04189453 61.20946289 9.06347656 61.83251953 C9.14708945 64.59650771 9.19880054 67.36022913 9.25 70.125 C9.30027344 71.55199219 9.30027344 71.55199219 9.3515625 73.0078125 C9.43267329 78.84778913 9.12496676 82.49620977 5 87 C-0.22259857 91.05630398 -5.65340142 90.77397544 -12 90 C-16.57511951 87.83283812 -18.94129305 85.59067987 -21 81 C-21.36245433 77.38772438 -21.2824631 73.81314237 -21.1875 70.1875 C-21.17396484 69.20845703 -21.16042969 68.22941406 -21.14648438 67.22070312 C-21.11125312 64.81323375 -21.06199265 62.40690436 -21 60 C-21.60473145 60.02094727 -22.20946289 60.04189453 -22.83251953 60.06347656 C-25.59650771 60.14708945 -28.36022913 60.19880054 -31.125 60.25 C-32.07632812 60.28351563 -33.02765625 60.31703125 -34.0078125 60.3515625 C-39.84778913 60.43267329 -43.49620977 60.12496676 -48 56 C-52.05630398 50.77740143 -51.77397544 45.34659858 -51 39 C-48.83283812 34.42488049 -46.59067987 32.05870695 -42 30 C-38.38772438 29.63754567 -34.81314237 29.7175369 -31.1875 29.8125 C-30.20845703 29.82603516 -29.22941406 29.83957031 -28.22070312 29.85351562 C-25.81323375 29.88874688 -23.40690436 29.93800735 -21 30 C-21.02094727 29.39526855 -21.04189453 28.79053711 -21.06347656 28.16748047 C-21.14708945 25.40349229 -21.19880054 22.63977087 -21.25 19.875 C-21.28351563 18.92367188 -21.31703125 17.97234375 -21.3515625 16.9921875 C-21.43267329 11.15221087 -21.12496676 7.50379023 -17 3 C-11.77740143 -1.05630398 -6.34659858 -0.77397544 0 0 Z " fill="#000000" transform="translate(473,241)"/>
<path d="M0 0 C4.57511951 2.16716188 6.94129305 4.40932013 9 9 C9.36245433 12.61227562 9.2824631 16.18685763 9.1875 19.8125 C9.16719727 21.28106445 9.16719727 21.28106445 9.14648438 22.77929688 C9.11125312 25.18676625 9.06199265 27.59309564 9 30 C9.60473145 29.97905273 10.20946289 29.95810547 10.83251953 29.93652344 C13.59650771 29.85291055 16.36022913 29.80119946 19.125 29.75 C20.07632813 29.71648437 21.02765625 29.68296875 22.0078125 29.6484375 C27.84778913 29.56732671 31.49620977 29.87503324 36 34 C40.05630398 39.22259857 39.77397544 44.65340142 39 51 C36.83283812 55.57511951 34.59067987 57.94129305 30 60 C26.38772438 60.36245433 22.81314237 60.2824631 19.1875 60.1875 C18.20845703 60.17396484 17.22941406 60.16042969 16.22070312 60.14648438 C13.81323375 60.11125312 11.40690436 60.06199265 9 60 C9.02094727 60.60473145 9.04189453 61.20946289 9.06347656 61.83251953 C9.14708945 64.59650771 9.19880054 67.36022913 9.25 70.125 C9.30027344 71.55199219 9.30027344 71.55199219 9.3515625 73.0078125 C9.43267329 78.84778913 9.12496676 82.49620977 5 87 C-0.22259857 91.05630398 -5.65340142 90.77397544 -12 90 C-16.57511951 87.83283812 -18.94129305 85.59067987 -21 81 C-21.36245433 77.38772438 -21.2824631 73.81314237 -21.1875 70.1875 C-21.17396484 69.20845703 -21.16042969 68.22941406 -21.14648438 67.22070312 C-21.11125312 64.81323375 -21.06199265 62.40690436 -21 60 C-21.60473145 60.02094727 -22.20946289 60.04189453 -22.83251953 60.06347656 C-25.59650771 60.14708945 -28.36022913 60.19880054 -31.125 60.25 C-32.07632813 60.28351563 -33.02765625 60.31703125 -34.0078125 60.3515625 C-39.84778913 60.43267329 -43.49620977 60.12496676 -48 56 C-52.05630398 50.77740143 -51.77397544 45.34659858 -51 39 C-48.83283812 34.42488049 -46.59067987 32.05870695 -42 30 C-38.38772438 29.63754567 -34.81314237 29.7175369 -31.1875 29.8125 C-30.20845703 29.82603516 -29.22941406 29.83957031 -28.22070312 29.85351562 C-25.81323375 29.88874688 -23.40690436 29.93800735 -21 30 C-21.02094727 29.39526855 -21.04189453 28.79053711 -21.06347656 28.16748047 C-21.14708945 25.40349229 -21.19880054 22.63977087 -21.25 19.875 C-21.28351562 18.92367187 -21.31703125 17.97234375 -21.3515625 16.9921875 C-21.43267329 11.15221087 -21.12496676 7.50379023 -17 3 C-11.77740143 -1.05630398 -6.34659858 -0.77397544 0 0 Z " fill="#000000" transform="translate(51,181)"/>
</svg>
